/* XPM */
static char * chronometer_xpm[] = {
"48 48 720 2",
"  	c None",
". 	c #D2D2D2",
"+ 	c #D1D1D1",
"@ 	c #D1D0D1",
"# 	c #B7B7B7",
"$ 	c #A2A2A2",
"% 	c #9E9E9E",
"& 	c #A7A7A7",
"* 	c #BEBDBE",
"= 	c #D0CFD0",
"- 	c #9C9C9C",
"; 	c #AAAAAA",
"> 	c #868786",
", 	c #9A9B9A",
"' 	c #A7A8A7",
") 	c #AFAFAF",
"! 	c #AEAEAE",
"~ 	c #ACACAC",
"{ 	c #A3A3A3",
"] 	c #959595",
"^ 	c #A8A7A8",
"/ 	c #B6B6B6",
"( 	c #727272",
"_ 	c #9D9D9D",
": 	c #BDBDBD",
"< 	c #D6D5D6",
"[ 	c #E6E6E6",
"} 	c #F0EFF0",
"| 	c #F3F2F3",
"1 	c #F5F3F5",
"2 	c #F4F3F4",
"3 	c #F2F0F2",
"4 	c #ECEBEC",
"5 	c #E1E0E1",
"6 	c #CDCDCD",
"7 	c #B2B2B2",
"8 	c #8C8C8C",
"9 	c #969696",
"0 	c #7B7B7B",
"a 	c #D6D6D6",
"b 	c #F6F5F6",
"c 	c #F0EEF0",
"d 	c #E6E4E6",
"e 	c #DEDDDE",
"f 	c #D8D7D8",
"g 	c #D5D5D5",
"h 	c #D7D6D7",
"i 	c #DCDADB",
"j 	c #E2E1E2",
"k 	c #ECEAEC",
"l 	c #F5F4F5",
"m 	c #E5E4E5",
"n 	c #C3C3C3",
"o 	c #949494",
"p 	c #9A9B9B",
"q 	c #C9CACA",
"r 	c #C6C5C5",
"s 	c #CDCBCB",
"t 	c #B6B3B3",
"u 	c #7F7F7F",
"v 	c #C4C3C4",
"w 	c #666666",
"x 	c #A4A4A4",
"y 	c #D8D8D8",
"z 	c #F4F2F4",
"A 	c #E3E2E3",
"B 	c #D4D3D4",
"C 	c #C5C4C5",
"D 	c #B5B5B5",
"E 	c #9B9C9C",
"F 	c #989999",
"G 	c #B0B0B0",
"H 	c #BFBFBF",
"I 	c #CECECE",
"J 	c #DDDCDD",
"K 	c #EEECEE",
"L 	c #E7E6E7",
"M 	c #B8B8B8",
"N 	c #7A7A7A",
"O 	c #C8C6C6",
"P 	c #C7C3C3",
"Q 	c #D2CECE",
"R 	c #C0BDBD",
"S 	c #8B8B8B",
"T 	c #B3B2B3",
"U 	c #7E7E7E",
"V 	c #C2C1C2",
"W 	c #F1F0F1",
"X 	c #E4E3E4",
"Y 	c #CBCBCB",
"Z 	c #ADADAD",
"` 	c #8A8A8A",
" .	c #707070",
"..	c #636363",
"+.	c #5F5E5E",
"@.	c #605E5E",
"#.	c #615F5F",
"$.	c #5C5B5B",
"%.	c #5A5959",
"&.	c #5B5A5A",
"*.	c #676767",
"=.	c #A0A0A0",
"-.	c #C1C1C1",
";.	c #DBDBDB",
">.	c #F1EFF1",
",.	c #D3D2D3",
"'.	c #D5D6D6",
").	c #E8E7E7",
"!.	c #D1CDCD",
"~.	c #CCC7C7",
"{.	c #DCDBDB",
"].	c #9C9B9C",
"^.	c #F8F7F8",
"/.	c #EFEEEF",
"(.	c #D3D3D3",
"_.	c #767676",
":.	c #616060",
"<.	c #6E6C6C",
"[.	c #7D7A7A",
"}.	c #8B8888",
"|.	c #9B9797",
"1.	c #9C9999",
"2.	c #9D9999",
"3.	c #9A9797",
"4.	c #969393",
"5.	c #8F8C8C",
"6.	c #858282",
"7.	c #6C6969",
"8.	c #626060",
"9.	c #565555",
"0.	c #656565",
"a.	c #939393",
"b.	c #C5C5C5",
"c.	c #E7E7E7",
"d.	c #F8F6F8",
"e.	c #E6E5E6",
"f.	c #8D8D8D",
"g.	c #DDDADA",
"h.	c #D0CDCC",
"i.	c #D1CECE",
"j.	c #E0DEDE",
"k.	c #E9E8E9",
"l.	c #C0BDC0",
"m.	c #757375",
"n.	c #898989",
"o.	c #8B8A8B",
"p.	c #EBEAEA",
"q.	c #C0C0C0",
"r.	c #7D7E7E",
"s.	c #827F7F",
"t.	c #A5A1A1",
"u.	c #B7B2B2",
"v.	c #A9A5A5",
"w.	c #939090",
"x.	c #BEBABA",
"y.	c #B8B4B4",
"z.	c #B6B2B2",
"A.	c #B2AEAE",
"B.	c #AEABAB",
"C.	c #A3A0A0",
"D.	c #7C7A7A",
"E.	c #706E6E",
"F.	c #555454",
"G.	c #A8A8A8",
"H.	c #DFDFDF",
"I.	c #888888",
"J.	c #6E6D6C",
"K.	c #C0BEBE",
"L.	c #A5A3A4",
"M.	c #B9B8B8",
"N.	c #B3B0B3",
"O.	c #706E70",
"P.	c #787878",
"Q.	c #787778",
"R.	c #858585",
"S.	c #E0DFE0",
"T.	c #E8E8E8",
"U.	c #646464",
"V.	c #797777",
"W.	c #B3AFAF",
"X.	c #C5C1C1",
"Y.	c #C7BFBF",
"Z.	c #CECACA",
"`.	c #A19E9E",
" +	c #D8D3D3",
".+	c #DAD6D6",
"++	c #D9D4D4",
"@+	c #D7D2D2",
"#+	c #ACA8A8",
"$+	c #9C9898",
"%+	c #B9B5B5",
"&+	c #A8A4A4",
"*+	c #A19D9D",
"=+	c #928E8E",
"-+	c #6B6969",
";+	c #525252",
">+	c #8D8E8E",
",+	c #828282",
"'+	c #595859",
")+	c #656265",
"!+	c #5D5B5D",
"~+	c #757575",
"{+	c #EBE9EB",
"]+	c #E4E4E4",
"^+	c #5E5E5E",
"/+	c #9B9898",
"(+	c #D0CCCC",
"_+	c #D5D0D0",
":+	c #DDDBDB",
"<+	c #DCCCCC",
"[+	c #E3D6D6",
"}+	c #EBE8E8",
"|+	c #E4E0E0",
"1+	c #EAE5E5",
"2+	c #E9E4E4",
"3+	c #E7E3E3",
"4+	c #D4D0D0",
"5+	c #C6C2C2",
"6+	c #ABA8A8",
"7+	c #A29E9E",
"8+	c #838181",
"9+	c #525151",
"0+	c #808080",
"a+	c #DDDDDD",
"b+	c #797979",
"c+	c #5C5C5C",
"d+	c #BDBCBD",
"e+	c #5A5A5A",
"f+	c #AAA7A7",
"g+	c #E3DFDF",
"h+	c #E2DEDE",
"i+	c #EBE7E7",
"j+	c #E5DDDD",
"k+	c #DAB8B8",
"l+	c #EAE7E7",
"m+	c #ECE6E6",
"n+	c #E9E5E5",
"o+	c #E8E4E4",
"p+	c #ECE7E7",
"q+	c #E8E3E3",
"r+	c #E3DEDE",
"s+	c #D7D3D3",
"t+	c #C9C5C5",
"u+	c #8E8C8C",
"v+	c #4F4E4E",
"w+	c #838383",
"x+	c #F6F4F6",
"y+	c #999999",
"z+	c #DCDBDC",
"A+	c #575757",
"B+	c #B9B6B6",
"C+	c #B3B0B0",
"D+	c #F0ECEC",
"E+	c #EBECEC",
"F+	c #D4AFAF",
"G+	c #E1CBCB",
"H+	c #EAEAEA",
"I+	c #EAE6E6",
"J+	c #DEDADA",
"K+	c #979595",
"L+	c #505050",
"M+	c #EEEDEE",
"N+	c #616161",
"O+	c #6E6E6E",
"P+	c #CCCCCC",
"Q+	c #A09E9E",
"R+	c #F3EFEF",
"S+	c #EEEAEA",
"T+	c #E5E1E1",
"U+	c #EBE9E9",
"V+	c #E0D2D2",
"W+	c #CE9595",
"X+	c #EDEDED",
"Y+	c #F2EDED",
"Z+	c #8F8D8D",
"`+	c #D6D2D2",
" @	c #ADAAAA",
".@	c #C1BDBD",
"+@	c #BAB7B7",
"@@	c #9A9A9A",
"#@	c #9F9F9F",
"$@	c #D2D1D2",
"%@	c #757373",
"&@	c #F2EEEE",
"*@	c #F4F0F0",
"=@	c #828080",
"-@	c #DDD9D9",
";@	c #EDE7E7",
">@	c #EBEFEF",
",@	c #C88C8C",
"'@	c #DFC1C1",
")@	c #EDEEEE",
"!@	c #EDE9E9",
"~@	c #8A8888",
"{@	c #CCC9C9",
"]@	c #D8D5D5",
"^@	c #C3C0C0",
"/@	c #BDBABA",
"(@	c #7C7979",
"_@	c #6C6C6C",
":@	c #C3C2C3",
"<@	c #CFCECF",
"[@	c #BABABA",
"}@	c #CFCBCB",
"|@	c #F1ECEC",
"1@	c #BBB8B8",
"2@	c #DCD8D8",
"3@	c #EEE9E9",
"4@	c #EEEDED",
"5@	c #D9C3C3",
"6@	c #C47575",
"7@	c #EFF2F2",
"8@	c #EBE5E5",
"9@	c #ECE8E8",
"0@	c #9F9C9C",
"a@	c #CCC8C8",
"b@	c #5D5C5C",
"c@	c #A5A5A5",
"d@	c #CECDCE",
"e@	c #C9C8C9",
"f@	c #F6F1F1",
"g@	c #EFEBEB",
"h@	c #ECF2F2",
"i@	c #BC6A6A",
"j@	c #DEBABA",
"k@	c #EBE6E6",
"l@	c #ECE9E9",
"m@	c #D8D4D4",
"n@	c #A19F9F",
"o@	c #E1DEDE",
"p@	c #D0CDCD",
"q@	c #939191",
"r@	c #E9E9E9",
"s@	c #F9F7F9",
"t@	c #6F706F",
"u@	c #4B4B4B",
"v@	c #A6A6A6",
"w@	c #CAC9CA",
"x@	c #C4C1C1",
"y@	c #EEEBEB",
"z@	c #E6E2E2",
"A@	c #E4E1E1",
"B@	c #E5E1E2",
"C@	c #F0F2F2",
"D@	c #D3B3B3",
"E@	c #BD5E5E",
"F@	c #F1F5F5",
"G@	c #F3F0F0",
"H@	c #E3E0E0",
"I@	c #B1AFAF",
"J@	c #E0DDDD",
"K@	c #F5F1F1",
"L@	c #C6C3C3",
"M@	c #646363",
"N@	c #F7F6F7",
"O@	c #B8B7B8",
"P@	c #9D9E9E",
"Q@	c #696868",
"R@	c #E9E6E6",
"S@	c #F2EFEF",
"T@	c #EDEAEA",
"U@	c #DEDCDC",
"V@	c #E0D7D7",
"W@	c #E8E1E1",
"X@	c #E6E3E4",
"Y@	c #EBF0F0",
"Z@	c #B34F4F",
"`@	c #DCB5B5",
" #	c #F1F4F4",
".#	c #EDE8E8",
"+#	c #F7F4F4",
"@#	c #D7D4D4",
"##	c #9B9999",
"$#	c #F1EEEE",
"%#	c #DEDBDB",
"&#	c #818080",
"*#	c #F4F4F4",
"=#	c #9B9B9B",
"-#	c #747474",
";#	c #BFBEBF",
">#	c #8B8A8A",
",#	c #D5D2D2",
"'#	c #B4B1B1",
")#	c #CBC8C8",
"!#	c #E4E2E3",
"~#	c #EBE0E0",
"{#	c #E8D4D4",
"]#	c #F1F1F1",
"^#	c #E6E3E3",
"/#	c #F2F7F7",
"(#	c #CD9F9F",
"_#	c #B74D4D",
":#	c #F2F6F6",
"<#	c #FBF7F7",
"[#	c #888686",
"}#	c #F1EDED",
"|#	c #BAB8B8",
"1#	c #EAE9EA",
"2#	c #F9F8F9",
"3#	c #B4B4B4",
"4#	c #818181",
"5#	c #B6B5B5",
"6#	c #A9A6A6",
"7#	c #F9F6F6",
"8#	c #CFCCCC",
"9#	c #E6E5E5",
"0#	c #C29191",
"a#	c #D8CFCF",
"b#	c #EDEBEB",
"c#	c #E8E4E5",
"d#	c #F0EBEB",
"e#	c #E9EAEA",
"f#	c #AB3434",
"g#	c #DEB2B2",
"h#	c #FFFFFF",
"i#	c #FBF5F5",
"j#	c #AFADAD",
"k#	c #7A7979",
"l#	c #EFECEC",
"m#	c #E2DFDF",
"n#	c #D3D0D0",
"o#	c #6F6F6F",
"p#	c #DADADA",
"q#	c #FBF9FA",
"r#	c #C7C6C7",
"s#	c #BCBBBC",
"t#	c #F7F3F3",
"u#	c #DDC5C5",
"v#	c #DDD0D0",
"w#	c #E7E4E4",
"x#	c #F4FAFA",
"y#	c #CB8F8F",
"z#	c #982121",
"A#	c #838787",
"B#	c #939595",
"C#	c #767575",
"D#	c #F4F1F1",
"E#	c #F0EDED",
"F#	c #E8E5E5",
"G#	c #CACACA",
"H#	c #FBF9FB",
"I#	c #717271",
"J#	c #3F3F3F",
"K#	c #5F5F5F",
"L#	c #CCCACA",
"M#	c #F6F3F3",
"N#	c #F0EDEC",
"O#	c #E1DEDF",
"P#	c #F2F1F1",
"Q#	c #F2F0F0",
"R#	c #E5E2E2",
"S#	c #F5F5F5",
"T#	c #6B5E5E",
"U#	c #840000",
"V#	c #7F0404",
"W#	c #462C2C",
"X#	c #D2D4D4",
"Y#	c #F9F5F5",
"Z#	c #807F7F",
"`#	c #BEBEBE",
" $	c #FAF9FA",
".$	c #9D9C9C",
"+$	c #706F70",
"@$	c #1F1F1F",
"#$	c #191919",
"$$	c #323232",
"%$	c #5D5D5D",
"&$	c #E7E5E5",
"*$	c #E4E8E8",
"=$	c #432323",
"-$	c #A50000",
";$	c #B80808",
">$	c #450000",
",$	c #A9B1B1",
"'$	c #FDF8F8",
")$	c #EEECEC",
"!$	c #EFEDED",
"~$	c #868585",
"{$	c #B9BABA",
"]$	c #171818",
"^$	c #080808",
"/$	c #1B1B1B",
"($	c #848484",
"_$	c #AFAEAF",
":$	c #F8F5F5",
"<$	c #F1EFEF",
"[$	c #ECEAEA",
"}$	c #544F4F",
"|$	c #610808",
"1$	c #930000",
"2$	c #4C1D1D",
"3$	c #D3D8D8",
"4$	c #F0EEEE",
"5$	c #BCBCBC",
"6$	c #FCFBFC",
"7$	c #000000",
"8$	c #020202",
"9$	c #0B0B0B",
"0$	c #AAA9AA",
"a$	c #595959",
"b$	c #BFBDBD",
"c$	c #6D6C6C",
"d$	c #878686",
"e$	c #7C8B8B",
"f$	c #7B2A2A",
"g$	c #BB4A4A",
"h$	c #F8FEFE",
"i$	c #F4F2F2",
"j$	c #7E7D7D",
"k$	c #C6C6C6",
"l$	c #FFFEFF",
"m$	c #434343",
"n$	c #A4A3A4",
"o$	c #A6A4A4",
"p$	c #FFFEFE",
"q$	c #E8E6E6",
"r$	c #FAF7F7",
"s$	c #BFBEBE",
"t$	c #8E8D8D",
"u$	c #F8F4F4",
"v$	c #E7DCDC",
"w$	c #A21414",
"x$	c #DEB6B6",
"y$	c #F6FAFA",
"z$	c #F5F2F2",
"A$	c #E2E0E0",
"B$	c #F7F5F5",
"C$	c #FEFCFE",
"D$	c #A1A0A1",
"E$	c #404040",
"F$	c #9B9A9B",
"G$	c #9E9D9E",
"H$	c #696969",
"I$	c #858484",
"J$	c #B6B4B4",
"K$	c #BDBBBB",
"L$	c #F3F1F1",
"M$	c #FBF8F8",
"N$	c #F3FAFA",
"O$	c #C57F7F",
"P$	c #DAA8A8",
"Q$	c #F7FCFC",
"R$	c #F6F4F4",
"S$	c #E3E1E1",
"T$	c #BCBABA",
"U$	c #C1BFBF",
"V$	c #7C7C7C",
"W$	c #858485",
"X$	c #454545",
"Y$	c #8C8B8C",
"Z$	c #F8F6F6",
"`$	c #F3F6F6",
" %	c #F6F8F8",
".%	c #FBF9F9",
"+%	c #A5A4A4",
"@%	c #919191",
"#%	c #DBDADB",
"$%	c #6B6B6B",
"%%	c #2A2A2A",
"&%	c #6E6D6E",
"*%	c #999899",
"=%	c #909090",
"-%	c #4E4E4E",
";%	c #C4C3C3",
">%	c #FEFCFC",
",%	c #F5F2F3",
"'%	c #EAE6E7",
")%	c #F5F3F3",
"!%	c #BBBBBB",
"~%	c #B6B5B6",
"{%	c #565656",
"]%	c #4D4D4D",
"^%	c #929192",
"/%	c #969596",
"(%	c #626363",
"_%	c #797878",
":%	c #FDFBFB",
"<%	c #F9F8F8",
"[%	c #F8F7F7",
"}%	c #F8F8F8",
"|%	c #DDDBDC",
"1%	c #D0CECE",
"2%	c #737373",
"3%	c #444544",
"4%	c #949394",
"5%	c #494949",
"6%	c #CFCDCD",
"7%	c #FCFAFA",
"8%	c #FAF8F8",
"9%	c #D7D5D5",
"0%	c #DFDDDD",
"a%	c #F9F7F7",
"b%	c #DEC5C5",
"c%	c #F5F4F4",
"d%	c #BDBCBC",
"e%	c #F6F5F5",
"f%	c #878787",
"g%	c #AAABAB",
"h%	c #515151",
"i%	c #8F8E8F",
"j%	c #606160",
"k%	c #8A8989",
"l%	c #BEBDBD",
"m%	c #EBE9EA",
"n%	c #F7F7F7",
"o%	c #E4DCDC",
"p%	c #CEAAAA",
"q%	c #E4E5E5",
"r%	c #EFEEEE",
"s%	c #F7F6F6",
"t%	c #BEBCBC",
"u%	c #AAA9A9",
"v%	c #F4F3F3",
"w%	c #989798",
"x%	c #4C4C4C",
"y%	c #727172",
"z%	c #908F90",
"A%	c #464646",
"B%	c #9F9E9E",
"C%	c #E9E8E8",
"D%	c #BCBBBB",
"E%	c #F3F2F2",
"F%	c #F0F0F0",
"G%	c #F2EAEA",
"H%	c #EFE3E3",
"I%	c #F6F6F6",
"J%	c #EFECED",
"K%	c #F1F0F0",
"L%	c #FAF9F9",
"M%	c #EEEEEE",
"N%	c #6E6D6D",
"O%	c #C2C1C1",
"P%	c #EFE9EA",
"Q%	c #F2ECEC",
"R%	c #FEFDFD",
"S%	c #828181",
"T%	c #989898",
"U%	c #F2F1F2",
"V%	c #575657",
"W%	c #868586",
"X%	c #B8B7B7",
"Y%	c #F0EFEF",
"Z%	c #FBFAFA",
"`%	c #FDFDFD",
" &	c #858686",
".&	c #EBEAEB",
"+&	c #C5C3C5",
"@&	c #616061",
"#&	c #878687",
"$&	c #555555",
"%&	c #B9B9B9",
"&&	c #ECEBEB",
"*&	c #FCFBFB",
"=&	c #CFCDCF",
"-&	c #373737",
";&	c #646364",
">&	c #EDECEC",
",&	c #FDFCFC",
"'&	c #C0BFBF",
")&	c #E1E1E1",
"!&	c #C7C6C6",
"~&	c #FEFEFE",
"{&	c #D3D2D2",
"]&	c #8F8F8F",
"^&	c #E0E0E0",
"/&	c #868686",
"(&	c #393939",
"_&	c #807F80",
":&	c #FAFAFA",
"<&	c #FCFCFC",
"[&	c #DEDEDE",
"}&	c #363636",
"|&	c #757475",
"1&	c #A9A9A9",
"2&	c #979797",
"3&	c #717171",
"4&	c #C5C4C4",
"5&	c #D6D5D5",
"6&	c #C9C8C8",
"7&	c #9C9B9B",
"8&	c #A1A2A1",
"9&	c #313131",
"0&	c #4E4D4E",
"a&	c #686868",
"b&	c #7D7C7D",
"c&	c #A1A1A1",
"d&	c #929292",
"e&	c #C6C5C6",
"f&	c #ADACAD",
"g&	c #272727",
"h&	c #3E3F3E",
"i&	c #6C6B6C",
"j&	c #959495",
"k&	c #BAB9BA",
"l&	c #BBBABB",
"m&	c #B4B3B4",
"n&	c #ACABAC",
"o&	c #A3A2A3",
"p&	c #2F2F2F",
"q&	c #585758",
"r&	c #737273",
"s&	c #A7A6A7",
"t&	c #ABABAB",
"u&	c #A2A1A2",
"v&	c #919091",
"w&	c #848384",
"x&	c #6D6D6D",
"y&	c #545454",
"z&	c #3C3C3C",
"A&	c #777677",
"B&	c #7A797A",
"C&	c #7C7B7C",
"D&	c #7B7A7B",
"E&	c #585858",
"F&	c #252525",
"G&	c #3B3B3B",
"H&	c #484848",
"I&	c #4A4A4A",
"J&	c #3E3E3E",
"K&	c #333333",
"                                                                                . +             ",
"                                                                            @ # $ % & *         ",
"                                                                          = -           ;       ",
"                                    > , ' ) ! ~ { ]                       ^               /     ",
"                            ( _ : < [ } | 1 2 | 3 4 5 6 7 8               9 + :           ]     ",
"                        0 ! a } b c d e f < g h i j k 2 l m n o         p q r s t         u v   ",
"                    w x y l z A B C D & E ] o F $ G H I J K b L M N       + O P Q R       S T   ",
"                  U V W b X Y Z `  ...+.@.#.@.$.%.&.*.U =.-.;.>.l ,.`   '.).!.~.Q {.=     ].    ",
"                ` f ^./.(.& _.:.<.[.}.|.1.2.3.4.5.6.7.8.9.0.a.b.c.d.e.f.8 g.h.i.j.k.l.m.n.o.    ",
"              8 j ^.p.q.r.:.s.t.u.v.w.x.y.y.z.A.B.C.D.1.}.E.F.*.G.H.b W I.J.K.L.M.N.O.P.Q.      ",
"            R.S.3 T.! U.V.W.X.Y.Z.Q `. +.+++@+Q Q #+$+%+&+*+=+-+;+>+;.1 1 ,+'+)+  !+            ",
"          ~+B {+]+x ^+/+(+_+:+<+[+}+(+|+1+2+2+3+2+Q Q 4+5+%+6+7+8+9+0+a+1 W b+                  ",
"        c+d+d 5 & e+f+g+h+3+i+j+k+l+m+n+o+2+2+2+2+p+i+q+r+s+t+z.B.u+v+w+[ x+m _.                ",
"        y+S.z+M A+B+Q C+D+i+q+E+F+G+H+2+n+n+n+n+n+2+n+1+I+2+J+s+A.8+K+L+y+W M+# N+              ",
"      O+P+h P+..Q+R+S+X.t T+p+U+V+W+X+2+I+I+I+I+I+I+I+I+i+Y+Z+`+ @.@+@w.L+-.A e.@@              ",
"      #@h $@` %@&@n+o+*@B.=@-@;@>@,@'@)@1+i+i+i+i+i+I+!@g+~@{@]@^@o+t+/@(@_@S.k B _.            ",
"    *.:@<@[@$.}@|@I+i+i+3+1@2@3@4@5@6@7@8@i+i+i+i+i+9@i+9@.@+@B.0@&@h+a@B+b@Z W | c@            ",
"    ` d@e@R.=@f@I+9@9@i+S+&@g@i+m+h@i@j@7@k@9@9@9@l@l+D+n+m@n@C+S+9@!@o@p@q@O+r@s@d@t@          ",
"  u@v@w@[@N+x@R+I+l@9@y@z@A@B@g@p+C@D@E@F@m+!@!@!@l+G@H@I@J@K@!@g@!@!@!@g.L@M@n N@L n.          ",
"  ..O@v P@Q@R@S@G@T@S+U@V@W@X@]@9@3@Y@Z@`@ #.#S+l++#@###h+S@}+S+T@S+T@$#$#%#&#9 *#| =#          ",
"  -#;#* u >#,#'#)#9@3+!#~#{#]#J+^#.#/#(#_#:#1+}+<#L@[#A@G@!@y@y@y@S+}#g.|#t Q+N 1#2#3#          ",
"  4#;#5#_@6#7#o@8#R@^#g@9#0#a#b#c#T@d#e#f#g#h#i#j#k#o+*@T@l#g@l#l#g@}#m#g.&@n#o#p#q#r#..        ",
"  I.s#~ ..R t#D+K@$#B@!@X+u#v#p.w#y@3@x#y#z#A#B#C#l+D#S+E#l#l#l#D+E#l#S@G@}#F#C#G#H#,.I#    J#  ",
"  S O@x K#L#M#y@y@N#y@O#}+P#Q#R#}+E#g@S#T#U#V#W#X#Y#T@E#E#E#E#E#E#E#E#E#E#E#D#Z#`# $h .$+$@$#$$$",
"  n.T #@%$i.M#l#E#E#$#}+&$l+R@}+l#E#&@*$=$-$;$>$,$'$)$$#$#$#$#$#$#$#$#$#$#!$7#~${$ $z+U 9.]$^$/$",
"  ($_$_ e+L#:$E#$#$#$#S@E#l#l#S@<$E#+#[$}$|$1$2$3$t#4$<$<$<$<$<$<$<$S@$#$#4$7#($5$6$$@;+  7$8$9$",
"  N 0$_ a$b$7#l#D#Q#<$<$S@S@S@S@$#D#^#c$d$e$f$g$h$}#S@S@S@S@S@S@S@Q#S@i$M#<$i$j$k$l$s#m$        ",
"  _@n$% %$o$p$D#q$l#G@S@Q#Q#Q#Q#$#r$s$t$u$h#v$w$x$y$&@G@G@G@G@G@G@Q#z$F#A$B$[$_.a C$D$E$        ",
"  e+F$G$H$I$j.J$K$}+i$Q#G@G@L$L$L$G@i$M$L$g@N$O$P$Q$S@L$L$L$L$L$L$L$R$S$T$b$U$V$T.| W$          ",
"  X$Y$F$U K#m#b#Z$z$L$D#L$D#D#D#D#D#D#Q#D#R$S@`$ %z$i$i$i$i$i$i$i$i$D#B$Z$.%+%@%N@#%$%          ",
"  %%&%*%=%-%;%>%<$i$i$i$i$L$L$i$i$i$i$,%i$U+&$'%F#4$)%i$)%i$i$)%)%)%)%i$Q#.%U !%2#~%{%          ",
"    ]%^%/%(%_%:%L$)%)%)%i$<%[%i$)%)%)%R$b#!#R$}%U+|%R$)%)%R$B$)%)%)%)%i$:%1%2%T.k.o.3%          ",
"    $$b+4%R.5%6%7%i$R$i$8%9%0%a%)%R$R$)%q$B$I+b%<$Q#b#B$c%B$d%b#Z$)%e%i$p$f%g%X+:@*.            ",
"      h%i%@%j%$%.%c%i$.%b#k%l%>%)%e%B$)%m%n%o%p%q%<$r%s%R$.%t%u%v%8%L$h#r O+P+w@w%x%            ",
"      $$y%z%n.A%B%h#<%C%D%9%E%Z$B$B$B$s%[$F%G%H%I%J%K%Z$B$s%L%C%K$4@>%M%N%& P+v  .              ",
"        X$,+i%N m$O%*#I@4@h#s%s%Z$Z$s%[%c%T.P%Q%W p.[%[%Z$Z$e%R%9#/ <%S%T%]#U%G.A+              ",
"        %%V%W%^%_.h%X%[%L%c%[%[%[%[%L%<%[%<%Y%P#P#Z%<%[%[%a%a%R$`%Y%,+ &.&U%+&$%                ",
"          $$@&#&y+N $&%&h#Z%e%[%a%Z%&&L$L%a%L%<%*&4@4@Z%<%[%[%h#E%I.0+]+} =&V$                  ",
"            -&;&W%G$I.A+^%>&h#Z%e%,&'&>&*&<%<%<%R%)&!&h#[%~&~&{&4#]&^&e.w@/&]%                  ",
"              (&@&_&_ _ O+$%7 r%h#s%'&R%[%<%<%<%:&[%q.h#<&;.=.w+Z [&h s#w+L+                    ",
"                }&a$|&@%1&2&3&-#=.4&5&p$~&h#h#h#R%s%6&D%7&S 8&r#B :@0$P.u@                      ",
"                  9&0&a&b&@@_$x ` 0 0+n.y+c&+%c&y+=%d&@@! -.e&d+f&^%w                           ",
"                    g&h&'+i&b&j&~ / 3#Z v@{ c@; 7 k&d+l&m&n&o&d&2%h%                            ",
"                        p&m$q&*.r&0+z%_ s&t&t&^ u&- *%/%v&w&x&y&                                ",
"                            %%z&x%e+U._@( A&B&C&b&D&-#a&E&X$                                    ",
"                                  F&9&G&m$H&I&5%X$J&K&                                          ",
"                                                                                                ",
"                                                                                                "};
